Coordinates
version=1
nRows=12
nColumns=28
inDegrees=yes

Units are S.I. units (second, meters, Newtons, ...)
Angles are in degrees.

endheader
time	pelvis_tilt	pelvis_list	pelvis_rotation	pelvis_tx	pelvis_ty	pelvis_tz	hip_flexion_r	hip_adduction_r	hip_rotation_r	knee_angle_r	ankle_angle_r	subtalar_angle_r	mtp_angle_r	hip_flexion_l	hip_adduction_l	hip_rotation_l	knee_angle_l	socket_flexion	socket_adduction	socket_rotation	socket_tx	socket_ty	socket_tz	foot_flex	lumbar_extension	lumbar_bending	lumbar_rotation
      0.62500000	     -1.97593774	     -4.90055481	      8.01430359	     -0.01346780	      0.98592869	      0.25867360	     25.85551660	      3.96341254	     -8.54994118	     -4.88544980	     18.88149027	    -18.22315504	    -23.57375272	    -18.45186269	     -8.23296356	      1.07867077	    -13.22309467	      0.00000000	      0.00000000	      0.00000000	      0.00000000	      0.00000000	      0.00000000	      7.37344635	     -7.58987105	      5.58403781	     -6.03491264
      0.62916667	     -2.10699455	     -4.84721466	      7.95074320	     -0.01319022	      0.98562104	      0.25873150	     26.08232382	      3.87857912	     -8.83234111	     -5.01279906	     16.97568545	    -18.69601811	    -16.07547881	    -18.36354708	     -8.13908689	      0.97057084	    -13.19796903	      0.00000000	      0.00000000	      0.00000000	      0.00000000	      0.00000000	      0.00000000	      7.40073624	     -7.40025116	      5.50180119	     -6.13595187
      0.63333333	     -2.05947706	     -4.96321399	      8.09517345	     -0.00678908	      0.98463610	      0.25895943	     26.22169880	      4.01093674	     -8.65148036	     -5.76618415	     16.70492676	    -18.71469268	    -16.09223677	    -18.55793120	     -8.35711768	      0.99638876	    -13.55977727	      0.00000000	      0.00000000	      0.00000000	      0.00000000	      0.00000000	      0.00000000	      7.33087849	     -7.37579050	      5.70273842	     -6.18394292
      0.63750000	     -2.01090139	     -5.10796275	      8.08071173	     -0.00044266	      0.98364603	      0.25940043	     26.51056167	      4.21227767	     -8.60164449	     -6.79239232	     16.24087795	    -18.83753073	    -16.04122830	    -18.75649816	     -8.55264489	      0.87970394	    -13.98528130	      0.00000000	      0.00000000	      0.00000000	      0.00000000	      0.00000000	      0.00000000	      7.25083899	     -7.37225791	      5.97440223	     -6.28239543
      0.64166667	     -1.98274603	     -5.25368209	      8.10590134	      0.00597724	      0.98267934	      0.25981969	     26.76169654	      4.40700219	     -8.47340983	     -7.73110034	     15.77984201	    -18.93478049	    -15.91776998	    -18.91022860	     -8.76171159	      0.79127867	    -14.43295987	      0.00000000	      0.00000000	      0.00000000	      0.00000000	      0.00000000	      0.00000000	      7.14543609	     -7.33573996	      6.21840271	     -6.33237644
      0.64583333	     -1.95612033	     -5.41395186	      8.11498031	      0.01239913	      0.98173559	      0.26027436	     27.01860575	      4.62137672	     -8.33046816	     -8.68131052	     15.27570807	    -19.04158276	    -15.74083391	    -19.04617087	     -8.97990627	      0.70468138	    -14.91094610	      0.00000000	      0.00000000	      0.00000000	      0.00000000	      0.00000000	      0.00000000	      7.02073464	     -7.29508125	      6.48159615	     -6.35540678
      0.65000000	     -1.93481001	     -5.58247002	      8.10059126	      0.01883839	      0.98082451	      0.26076405	     27.28139038	      4.84905943	     -8.18890565	     -9.64484998	     14.71904118	    -19.17339420	    -15.47814926	    -19.15966128	     -9.19822101	      0.57691601	    -15.42358371	      0.00000000	      0.00000000	      0.00000000	      0.00000000	      0.00000000	      0.00000000	      6.86673346	     -7.24249250	      6.74437008	     -6.35280446
      0.65416667	     -1.98084637	     -5.73956658	      8.06584628	      0.02547525	      0.97982073	      0.26126199	     27.52949040	      5.06398374	     -7.99188675	    -10.38491090	     12.19457190	    -20.19896098	     -8.45800256	    -19.20257799	     -9.38719574	      0.47232309	    -15.96201784	      0.00000000	      0.00000000	      0.00000000	      0.00000000	      0.00000000	      0.00000000	      6.65477034	     -7.09520197	      6.98628382	     -6.27361039
      0.65833333	     -1.90071374	     -5.91592901	      8.16759666	      0.03180224	      0.97918230	      0.26174503	     27.63103795	      5.28914301	     -7.75619315	    -11.18075986	     11.94329174	    -20.16450184	     -8.47398342	    -19.25547791	     -9.66893003	      0.52612160	    -16.62001029	      0.00000000	      0.00000000	      0.00000000	      0.00000000	      0.00000000	      0.00000000	      6.41774091	     -7.12808293	      7.24220046	     -6.26804696
      0.66250000	     -1.82889624	     -6.14717595	      8.01298616	      0.03840505	      0.97838937	      0.26241372	     27.96611285	      5.59957307	     -7.86039364	    -12.42573187	     11.34099204	    -20.26784200	     -8.48168675	    -19.41811426	     -9.90799796	      0.21188479	    -17.21034376	      0.00000000	      0.00000000	      0.00000000	      0.00000000	      0.00000000	      0.00000000	      6.24043828	     -7.12067083	      7.59474058	     -6.26852520
      0.66666667	     -1.74739331	     -6.34069634	      8.06619606	      0.04477494	      0.97785725	      0.26294384	     28.06053103	      5.85533969	     -7.62953783	    -13.22246655	     11.06678731	    -20.23061988	     -8.47275563	    -19.43709073	    -10.18721488	      0.24130133	    -17.94745806	      0.00000000	      0.00000000	      0.00000000	      0.00000000	      0.00000000	      0.00000000	      5.92633938	     -7.14529004	      7.87703310	     -6.23546406
      0.67083333	     -1.90363685	     -6.60219167	      7.68335516	      0.05159537	      0.97681657	      0.26401506	     28.57822958	      6.28669151	     -7.41461799	    -14.35657680	      9.95571113	    -20.77561722	     -6.97194942	    -19.36590672	    -10.36924824	     -0.33894077	    -18.63367510	      0.00000000	      0.00000000	      0.00000000	      0.00000000	      0.00000000	      0.00000000	      5.67437951	     -6.88248732	      8.16604045	     -5.76762994
